{
  "accessors": [
    {
      "bufferView": 2,
      "componentType": 5126,
      "count": 29327,
      "max": [
        0.8255299925804138,
        1.8172199726104736,
        0.5336199998855591
      ],
      "min": [
        -0.8255299925804138,
        -1.5675499439239502,
        -0.4133400022983551
      ],
      "type": "VEC3"
    },
    {
      "bufferView": 2,
      "byteOffset": 351924,
      "componentType": 5126,
      "count": 29327,
      "max": [
        0.999966561794281,
        1.0,
        1.0
      ],
      "min": [
        -0.999966561794281,
        -1.0,
        -1.0
      ],
      "type": "VEC3"
    },
    {
      "bufferView": 1,
      "componentType": 5126,
      "count": 29327,
      "max": [
        0.9801099896430969,
        0.9831699728965759
      ],
      "min": [
        0.02677999995648861,
        0.012090000323951244
      ],
      "type": "VEC2"
    },
    {
      "bufferView": 0,
      "componentType": 5125,
      "count": 92763,
      "type": "SCALAR"
    },
    {
      "bufferView": 2,
      "byteOffset": 703848,
      "componentType": 5126,
      "count": 2893,
      "max": [
        0.8081799745559692,
        1.8265899419784546,
        0.5324299931526184
      ],
      "min": [
        -0.8081799745559692,
        -1.526610016822815,
        -0.34652000665664673
      ],
      "type": "VEC3"
    },
    {
      "bufferView": 2,
      "byteOffset": 738564,
      "componentType": 5126,
      "count": 2893,
      "max": [
        0.9957649111747742,
        0.9996287226676941,
        0.9999452233314514
      ],
      "min": [
        -0.9957649111747742,
        -1.0,
        -0.9841700792312622
      ],
      "type": "VEC3"
    },
    {
      "bufferView": 3,
      "componentType": 5126,
      "count": 2893,
      "max": [
        1.0,
        0.9996135234832764,
        0.9221688508987427,
        1.0
      ],
      "min": [
        -1.0,
        -0.9996135234832764,
        -0.9999808669090271,
        -1.0
      ],
      "type": "VEC4"
    },
    {
      "bufferView": 1,
      "byteOffset": 234616,
      "componentType": 5126,
      "count": 2893,
      "max": [
        0.8941299915313721,
        0.8834999799728394
      ],
      "min": [
        0.44843998551368713,
        0.28294000029563904
      ],
      "type": "VEC2"
    },
    {
      "bufferView": 0,
      "byteOffset": 371052,
      "componentType": 5125,
      "count": 10848,
      "type": "SCALAR"
    },
    {
      "bufferView": 2,
      "byteOffset": 773280,
      "componentType": 5126,
      "count": 4,
      "max": [
        1.0,
        1.0,
        0.0
      ],
      "min": [
        -1.0,
        -1.0,
        0.0
      ],
      "type": "VEC3"
    },
    {
      "bufferView": 2,
      "byteOffset": 773328,
      "componentType": 5126,
      "count": 4,
      "max": [
        0.0,
        0.0,
        1.0
      ],
      "min": [
        0.0,
        0.0,
        1.0
      ],
      "type": "VEC3"
    },
    {
      "bufferView": 1,
      "byteOffset": 257760,
      "componentType": 5126,
      "count": 4,
      "max": [
        1.0,
        1.0
      ],
      "min": [
        0.0,
        0.0
      ],
      "type": "VEC2"
    },
    {
      "bufferView": 0,
      "byteOffset": 414444,
      "componentType": 5125,
      "count": 6,
      "type": "SCALAR"
    }
  ],
  "asset": {
    "extras": {
      "author": "Karol Miklas (https://sketchfab.com/karolmiklas)",
      "license": "CC-BY-SA-4.0 (http://creativecommons.org/licenses/by-sa/4.0/)",
      "source": "https://sketchfab.com/3d-models/free-merc-hovercar-oFfjKlslHqXgtKdKqEtpffmSv6h",
      "title": "(FREE) Merc Hovercar"
    },
    "generator": "Sketchfab-12.65.0",
    "version": "2.0"
  },
  "bufferViews": [
    {
      "buffer": 0,
      "byteLength": 414468,
      "name": "floatBufferViews",
      "target": 34963
    },
    {
      "buffer": 0,
      "byteLength": 257792,
      "byteOffset": 414468,
      "byteStride": 8,
      "name": "floatBufferViews",
      "target": 34962
    },
    {
      "buffer": 0,
      "byteLength": 773376,
      "byteOffset": 672260,
      "byteStride": 12,
      "name": "floatBufferViews",
      "target": 34962
    },
    {
      "buffer": 0,
      "byteLength": 46288,
      "byteOffset": 1445636,
      "byteStride": 16,
      "name": "floatBufferViews",
      "target": 34962
    }
  ],
  "buffers": [
    {
      "byteLength": 1491924,
      "uri": "scene.bin"
    }
  ],
  "extensionsUsed": [
    "KHR_materials_clearcoat",
    "KHR_materials_transmission"
  ],
  "images": [
    {
      "uri": "textures/Plane_0_baseColor.png"
    },
    {
      "uri": "textures/Material.001_baseColor.jpeg"
    },
    {
      "uri": "textures/Material.001_metallicRoughness.png"
    },
    {
      "uri": "textures/Material.001_clearcoat.png"
    },
    {
      "uri": "textures/Material.001_clearcoat_normal.png"
    },
    {
      "uri": "textures/Material_light_normal.png"
    }
  ],
  "materials": [
    {
      "alphaMode": "BLEND",
      "doubleSided": true,
      "name": "Plane_0",
      "pbrMetallicRoughness": {
        "baseColorFactor": [
          0.0,
          0.0,
          0.0,
          1.0
        ],
        "baseColorTexture": {
          "index": 0
        },
        "metallicFactor": 0.0
      }
    },
    {
      "extensions": {
        "KHR_materials_clearcoat": {
          "clearcoatFactor": 1.0,
          "clearcoatNormalTexture": {
            "index": 4
          },
          "clearcoatRoughnessFactor": 0.04,
          "clearcoatTexture": {
            "index": 3
          }
        }
      },
      "name": "Material.001",
      "pbrMetallicRoughness": {
        "baseColorTexture": {
          "index": 1
        },
        "metallicFactor": 0.0,
        "metallicRoughnessTexture": {
          "index": 2
        }
      }
    },
    {
      "alphaMode": "BLEND",
      "doubleSided": true,
      "extensions": {
        "KHR_materials_clearcoat": {
          "clearcoatFactor": 1.0,
          "clearcoatRoughnessFactor": 0.04
        },
        "KHR_materials_transmission": {
          "transmissionFactor": 1.0
        }
      },
      "name": "Material_light",
      "normalTexture": {
        "index": 5,
        "scale": 0.4
      },
      "pbrMetallicRoughness": {
        "baseColorFactor": [
          1.0,
          1.0,
          1.0,
          0.25
        ],
        "roughnessFactor": 0.0
      }
    }
  ],
  "meshes": [
    {
      "name": "Plane.006_0",
      "primitives": [
        {
          "attributes": {
            "NORMAL": 1,
            "POSITION": 0,
            "TEXCOORD_0": 2
          },
          "indices": 3,
          "material": 1,
          "mode": 4
        }
      ]
    },
    {
      "name": "Plane.006_1",
      "primitives": [
        {
          "attributes": {
            "NORMAL": 5,
            "POSITION": 4,
            "TANGENT": 6,
            "TEXCOORD_0": 7
          },
          "indices": 8,
          "material": 2,
          "mode": 4
        }
      ]
    },
    {
      "name": "Plane_0",
      "primitives": [
        {
          "attributes": {
            "NORMAL": 10,
            "POSITION": 9,
            "TEXCOORD_0": 11
          },
          "indices": 12,
          "material": 0,
          "mode": 4
        }
      ]
    }
  ],
  "nodes": [
    {
      "children": [
        1
      ],
      "matrix": [
        0.49571290612220764,
        0.0,
        0.0,
        0.0,
        0.0,
        1.1007037639614473e-16,
        -0.49571290612220764,
        0.0,
        0.0,
        0.49571290612220764,
        1.1007037639614473e-16,
        0.0,
        0.018696852028369904,
        -0.06554613262414931,
        -0.04675361141562463,
        1.0
      ],
      "name": "Sketchfab_model"
    },
    {
      "children": [
        2,
        5
      ],
      "name": "Root"
    },
    {
      "children": [
        3,
        4
      ],
      "name": "Plane.006"
    },
    {
      "mesh": 0,
      "name": "Plane.006_0"
    },
    {
      "mesh": 1,
      "name": "Plane.006_1"
    },
    {
      "children": [
        6
      ],
      "matrix": [
        1.1870100000000001,
        0.0,
        0.0,
        0.0,
        0.0,
        2.0,
        0.0,
        0.0,
        0.0,
        0.0,
        1.0,
        0.0,
        0.0,
        0.0,
        -0.58231,
        1.0
      ],
      "name": "Plane"
    },
    {
      "mesh": 2,
      "name": "Plane_0"
    }
  ],
  "samplers": [
    {
      "magFilter": 9729,
      "minFilter": 9729,
      "wrapS": 10497,
      "wrapT": 10497
    },
    {
      "magFilter": 9729,
      "minFilter": 9987,
      "wrapS": 10497,
      "wrapT": 10497
    }
  ],
  "scene": 0,
  "scenes": [
    {
      "name": "Sketchfab_Scene",
      "nodes": [
        0
      ]
    }
  ],
  "textures": [
    {
      "sampler": 0,
      "source": 0
    },
    {
      "sampler": 1,
      "source": 1
    },
    {
      "sampler": 1,
      "source": 2
    },
    {
      "sampler": 1,
      "source": 3
    },
    {
      "sampler": 1,
      "source": 4
    },
    {
      "sampler": 1,
      "source": 5
    }
  ]
}
